<?xml version="1.0" encoding="UTF-8" standalone="no"?>
<svg
   width="256"
   height="256"
   viewBox="0 0 256 256"
   version="1.1"
   xmlns="http://www.w3.org/2000/svg">
  <defs>
    <linearGradient id="bgGrad" x1="0%" y1="0%" x2="0%" y2="100%">
      <stop offset="0%" style="stop-color:#4a4a4a"/>
      <stop offset="100%" style="stop-color:#2a2a2a"/>
    </linearGradient>
  </defs>
  <!-- Background rounded rectangle -->
  <rect width="256" height="256" rx="32" ry="32" fill="url(#bgGrad)"/>
  
  <!-- Two small buttons at top -->
  <circle cx="85" cy="28" r="8" fill="#555" stroke="#333" stroke-width="1"/>
  <line x1="82" y1="26" x2="88" y2="30" stroke="#777" stroke-width="1.5"/>
  <line x1="82" y1="30" x2="88" y2="26" stroke="#777" stroke-width="1.5"/>
  
  <circle cx="125" cy="28" r="8" fill="#555" stroke="#333" stroke-width="1"/>
  <line x1="122" y1="28" x2="128" y2="28" stroke="#777" stroke-width="1.5"/>
  <line x1="125" y1="25" x2="125" y2="31" stroke="#777" stroke-width="1.5"/>
  
  <!-- Encoder dial (top right) -->
  <circle cx="200" cy="36" r="22" fill="#3a3a3a" stroke="#555" stroke-width="2"/>
  <circle cx="200" cy="36" r="16" fill="#2a2a2a" stroke="#444" stroke-width="1"/>
  <circle cx="200" cy="24" r="3" fill="#666"/>
  
  <!-- Top row - 3 small LCD screens -->
  <rect x="30" y="50" width="52" height="22" rx="3" fill="#1a1a1a" stroke="#444" stroke-width="1"/>
  <rect x="92" y="50" width="52" height="22" rx="3" fill="#1a1a1a" stroke="#444" stroke-width="1"/>
  <rect x="154" y="50" width="52" height="22" rx="3" fill="#1a1a1a" stroke="#444" stroke-width="1"/>
  
  <!-- Main 5x3 button grid -->
  <!-- Row 1 -->
  <rect x="30" y="82" width="52" height="28" rx="4" fill="#2d2d2d" stroke="#444" stroke-width="1"/>
  <rect x="92" y="82" width="52" height="28" rx="4" fill="#2d2d2d" stroke="#444" stroke-width="1"/>
  <rect x="154" y="82" width="52" height="28" rx="4" fill="#2d2d2d" stroke="#444" stroke-width="1"/>
  
  <!-- Row 2 -->
  <rect x="30" y="118" width="52" height="28" rx="4" fill="#2d2d2d" stroke="#444" stroke-width="1"/>
  <rect x="92" y="118" width="52" height="28" rx="4" fill="#2d2d2d" stroke="#444" stroke-width="1"/>
  <rect x="154" y="118" width="52" height="28" rx="4" fill="#2d2d2d" stroke="#444" stroke-width="1"/>
  
  <!-- Row 3 -->
  <rect x="30" y="154" width="52" height="28" rx="4" fill="#2d2d2d" stroke="#444" stroke-width="1"/>
  <rect x="92" y="154" width="52" height="28" rx="4" fill="#2d2d2d" stroke="#444" stroke-width="1"/>
  <rect x="154" y="154" width="52" height="28" rx="4" fill="#2d2d2d" stroke="#444" stroke-width="1"/>
  
  <!-- Row 4 -->
  <rect x="30" y="190" width="52" height="28" rx="4" fill="#2d2d2d" stroke="#444" stroke-width="1"/>
  <rect x="92" y="190" width="52" height="28" rx="4" fill="#2d2d2d" stroke="#444" stroke-width="1"/>
  <rect x="154" y="190" width="52" height="28" rx="4" fill="#2d2d2d" stroke="#444" stroke-width="1"/>
  
  <!-- Row 5 -->
  <rect x="30" y="226" width="52" height="22" rx="4" fill="#2d2d2d" stroke="#444" stroke-width="1"/>
  <rect x="92" y="226" width="52" height="22" rx="4" fill="#2d2d2d" stroke="#444" stroke-width="1"/>
  <rect x="154" y="226" width="52" height="22" rx="4" fill="#2d2d2d" stroke="#444" stroke-width="1"/>
</svg>
       height="7.8788667"
       x="6.4720941"
       y="35.811321"
       rx="0.76096052"
       ry="0.76096052" />
    <rect
       style="fill:#ffffff;stroke-width:0.260576"
       id="rect3-3-6"
       width="7.8788667"
       height="7.8788667"
       x="16.229948"
       y="35.811321"
       rx="0.76096052"
       ry="0.76096052" />
    <rect
       style="fill:#ffffff;stroke-width:0.260576"
       id="rect3-3-1-2"
       width="7.8788667"
       height="7.8788667"
       x="25.987803"
       y="35.811321"
       rx="0.76096052"
       ry="0.76096052" />
    <rect
       style="fill:#ffffff;stroke-width:0.260576"
       id="rect3-36"
       width="7.8788667"
       height="7.8788667"
       x="6.4720941"
       y="25.987801"
       rx="0.76096052"
       ry="0.76096052" />
    <rect
       style="fill:#ffffff;stroke-width:0.260576"
       id="rect3-3-0"
       width="7.8788667"
       height="7.8788667"
       x="16.229948"
       y="25.987801"
       rx="0.76096052"
       ry="0.76096052" />
    <rect
       style="fill:#ffffff;stroke-width:0.260576"
       id="rect3-3-1-6"
       width="7.8788667"
       height="7.8788667"
       x="25.987801"
       y="25.987801"
       rx="0.76096052"
       ry="0.76096052" />
    <rect
       style="fill:#ffffff;stroke-width:0.260576"
       id="rect3-3-1-0"
       width="7.8788667"
       height="7.8788667"
       x="35.745659"
       y="16.164278"
       rx="0.76096052"
       ry="0.76096052" />
    <rect
       style="fill:#ffffff;stroke-width:0.260576"
       id="rect3-3-1-2-9"
       width="7.8788667"
       height="7.8788667"
       x="35.745659"
       y="35.811321"
       rx="0.76096052"
       ry="0.76096052" />
    <rect
       style="fill:#ffffff;stroke-width:0.260576"
       id="rect3-3-1-6-3"
       width="7.8788667"
       height="7.8788667"
       x="35.745655"
       y="25.987801"
       rx="0.76096052"
       ry="0.76096052" />
    <rect
       style="fill:#ffffff;stroke-width:0.260576"
       id="rect3-3-1-61"
       width="7.8788667"
       height="7.8788667"
       x="45.503517"
       y="16.164278"
       rx="0.76096052"
       ry="0.76096052" />
    <rect
       style="fill:#ffffff;stroke-width:0.260576"
       id="rect3-3-1-2-8"
       width="7.8788667"
       height="7.8788667"
       x="45.503517"
       y="35.811325"
       rx="0.76096052"
       ry="0.76096052" />
    <rect
       style="fill:#ffffff;stroke-width:0.260576"
       id="rect3-3-1-6-7"
       width="7.8788667"
       height="7.8788667"
       x="45.503517"
       y="25.987801"
       rx="0.76096052"
       ry="0.76096052" />
    <text
       xml:space="preserve"
       style="font-size:5.64444px;text-align:start;writing-mode:lr-tb;direction:ltr;text-anchor:start;fill:#ffffff;stroke-width:0.264583"
       x="11.370751"
       y="59.795059"
       id="text5"><tspan
         sodipodi:role="line"
         id="tspan5"
         style="font-style:normal;font-variant:normal;font-weight:normal;font-stretch:normal;font-size:5.64444px;font-family:'Fira Sans';-inkscape-font-specification:'Fira Sans';stroke-width:0.264583"
         x="11.370751"
         y="59.795059">AKP153 / HSV293S</tspan></text>
    <rect
       style="fill:#ffffff;stroke-width:0.264583"
       id="rect1"
       width="5.3413134"
       height="26.364176"
       x="55.261375"
       y="16.745146"
       ry="1.9151347e-15" />
  </g>
</svg>
